<svg xmlns="http://www.w3.org/2000/svg" xmlns:xlink="http://www.w3.org/1999/xlink" width="1905" zoomAndPan="magnify" viewBox="0 0 1428.75 745.499982" height="994" preserveAspectRatio="xMidYMid meet" version="1.2"><defs><clipPath id="d7e2812341"><path d="M 410.371094 12.347656 L 1018 12.347656 L 1018 732.617188 L 410.371094 732.617188 Z M 410.371094 12.347656 "/></clipPath><clipPath id="4e50cf741f"><path d="M 992 462 L 1063 462 L 1063 625.71875 L 992 625.71875 Z M 992 462 "/></clipPath></defs><g id="041b98f3ba"><g clip-rule="nonzero" clip-path="url(#d7e2812341)"><path style=" stroke:none;fill-rule:nonzero;fill:#ffffff;fill-opacity:1;" d="M 646.699219 732.722656 C 516.398438 732.722656 410.386719 626.695312 410.386719 496.378906 L 410.386719 12.390625 L 595.140625 12.390625 L 595.140625 499.410156 C 595.140625 526.175781 616.914062 547.953125 643.675781 547.953125 L 896.453125 547.953125 L 1017.992188 732.722656 Z M 812.300781 464.804688 L 812.300781 12.390625 L 997.058594 12.390625 L 997.058594 464.804688 Z M 812.300781 464.804688 "/></g><path style=" stroke:none;fill-rule:nonzero;fill:#ffffff;fill-opacity:1;" d="M 968.964844 602.574219 C 965.480469 602.574219 963.15625 601.414062 960.832031 599.089844 L 914.359375 552.613281 C 909.710938 547.96875 909.710938 540.996094 914.359375 536.347656 L 960.832031 489.875 C 965.480469 485.226562 972.453125 485.226562 977.097656 489.875 C 981.746094 494.523438 981.746094 501.492188 977.097656 506.140625 L 938.757812 544.480469 L 977.097656 582.824219 C 981.746094 587.46875 981.746094 594.441406 977.097656 599.089844 C 974.773438 601.414062 972.453125 602.574219 968.964844 602.574219 Z M 968.964844 602.574219 "/><path style=" stroke:none;fill-rule:nonzero;fill:#ffffff;fill-opacity:1;" d="M 1085.152344 602.574219 C 1081.664062 602.574219 1079.339844 601.414062 1077.019531 599.089844 C 1072.371094 594.441406 1072.371094 587.46875 1077.019531 582.824219 L 1115.359375 544.480469 L 1077.019531 506.140625 C 1072.371094 501.492188 1072.371094 494.523438 1077.019531 489.875 C 1081.664062 485.226562 1088.636719 485.226562 1093.285156 489.875 L 1139.757812 536.347656 C 1144.40625 540.996094 1144.40625 547.96875 1139.757812 552.613281 L 1093.285156 599.089844 C 1090.960938 601.414062 1088.636719 602.574219 1085.152344 602.574219 Z M 1085.152344 602.574219 "/><g clip-rule="nonzero" clip-path="url(#4e50cf741f)"><path style=" stroke:none;fill-rule:nonzero;fill:#ffffff;fill-opacity:1;" d="M 1003.820312 625.8125 C 1002.660156 625.8125 1001.496094 625.8125 1000.335938 624.648438 C 994.527344 622.324219 991.039062 616.515625 993.363281 609.546875 L 1039.839844 470.125 C 1042.164062 464.3125 1047.972656 460.828125 1054.941406 463.152344 C 1060.753906 465.476562 1064.238281 471.285156 1061.914062 478.257812 L 1015.441406 617.679688 C 1013.117188 622.324219 1008.46875 625.8125 1003.820312 625.8125 Z M 1003.820312 625.8125 "/></g></g></svg>